<svg width="200" height="200" xmlns="http://www.w3.org/2000/svg">
 <!-- Created with Method Draw - http://github.com/duopixel/Method-Draw/ -->

 <g>
  <title>background</title>
  <rect x="-1" y="-1" width="202" height="202" id="canvas_background" fill="none"/>
 </g>
 <g>
  <title>Layer 1</title>
  <!-- Created with Method Draw - http://github.com/duopixel/Method-Draw/ -->
  <g id="svg_30">
   <g id="svg_28" transform="matrix(1.23392, 0, 0, 1.2405, -179.632, -179.612)">
    <title stroke-width="2">background</title>
    <rect fill="none" id="svg_26" height="152" width="152" y="149.000229" x="149.000229" stroke-width="2"/>
   </g>
   <g id="svg_29" transform="matrix(1.39342, 0, 0, 1.37708, -215.778, -209.898)">
    <title fill="#ff0000" stroke-width="2">Layer 1</title>
    <g id="svg_15">
     <g transform="matrix(4.2309, 0, 0, 4.33791, -126.083, -132.22)" id="svg_25"/>
     <path stroke-width="2" id="svg_24" fill="#ff0000" d="m175.36554,185.363251c0,0 0,0 0,0c-3.393204,0 -6.583313,-1.3535 -8.978012,-3.813004l-5.982468,-6.133896l17.947479,-18.401367l5.982498,6.133759c2.403198,2.455307 3.72319,5.726105 3.72319,9.209396c0,3.474701 -1.324188,6.745514 -3.727386,9.200714c-2.3862,2.450897 -5.576309,3.804398 -8.965302,3.804398l0,0zm-2.995499,-9.946899c0.799698,0.819901 1.861588,1.271103 2.995499,1.271103l0,0c1.1297,0 2.191589,-0.451202 2.987,-1.266708c0.803894,-0.824203 1.243896,-1.908707 1.243896,-3.062607c0,-1.162491 -0.440002,-2.255692 -1.239594,-3.071198l0,-0.004395l-5.986801,6.133804l0,0z"/>
     <path stroke-width="2" id="svg_23" fill="#ff0000" d="m184.28006,175.364334l26.773163,26.474304l-5.872498,6.246582l-26.773163,-26.474289l5.872498,-6.246597z"/>
     <path stroke-width="2" id="svg_22" fill="#ff0000" d="m251.454132,243.257004l23.117645,23.702377l-5.982483,6.133789l-23.117676,-23.702362l5.982513,-6.133804z"/>
     <path stroke-width="2" id="svg_21" fill="#ff0000" d="m271.584778,291.70282c-5.402893,0 -10.805725,-2.103882 -14.918182,-6.320374l-25.740814,-26.391785l5.982483,-6.133865l25.740814,26.391861c4.937469,5.058044 12.971985,5.040649 17.92215,-0.030334c4.945923,-5.071045 4.937439,-13.339081 -0.025391,-18.431824l-25.690063,-26.335449l5.982483,-6.133804l25.690063,26.33548c8.262939,8.480606 8.271423,22.24913 0.025391,30.70372c-4.129364,4.225159 -9.553375,6.346375 -14.968933,6.346375z"/>
     <path stroke-width="2" id="svg_20" fill="#ff0000" d="m257.935883,222.174759l0,0c-7.911789,-0.004349 -15.34549,-3.162354 -20.942963,-8.901398c-5.597504,-5.730377 -8.677597,-13.35643 -8.677597,-21.463989c0,-8.116241 3.080093,-15.742294 8.677597,-21.477005l7.73407,-7.929718l5.982498,6.13382l-7.734085,7.929703c-3.998199,4.099319 -6.202499,9.547745 -6.198273,15.338867c0,5.791107 2.2043,11.239532 6.198273,15.334503s9.307983,6.35939 14.956238,6.35939l0,0c5.648254,0 10.958069,-2.260056 14.956238,-6.35939l7.734131,-7.929688l5.982452,6.133804l-7.73407,7.929703c-5.58902,5.743408 -13.026978,8.901398 -20.934509,8.901398z"/>
     <path stroke-width="2" id="svg_19" fill="#ff0000" d="m286.608673,205.343658l-8.973724,-9.200714l-2.991241,3.06691c-3.194336,3.279465 -7.442169,5.084015 -11.964996,5.084015l-0.004242,0c-4.518585,-0.004318 -8.770645,-1.808914 -11.964996,-5.084015s-4.954376,-7.630402 -4.954376,-12.267624c0,-4.628571 1.760071,-8.992493 4.954376,-12.271957l2.995483,-3.06691l-8.973755,-9.200714l5.982529,-6.133804l14.956253,15.334518l-8.973755,9.200714c-1.599304,1.644073 -2.479309,3.821701 -2.479309,6.138153s0.880005,4.49408 2.479309,6.129471c1.595032,1.644073 3.718964,2.546356 5.982483,2.546356c0,0 0,0 0,0c2.259308,0 4.383209,-0.902283 5.982483,-2.542023l8.977997,-9.200714l14.956207,15.334534l-5.986725,6.133804z"/>
     <path stroke-width="2" id="svg_18" fill="#ff0000" d="m175.496704,267.649109l8.461792,0l0,8.675812l-8.461792,0l0,-8.675812z"/>
     <path stroke-width="2" id="svg_17" fill="#ff0000" d="m220.077759,210.878815l16.783966,17.013306l-5.948639,6.168518l-16.783997,-17.013306l5.948669,-6.168518z"/>
     <path stroke-width="2" id="svg_16" fill="#ff0000" d="m179.596451,293.811035c-5.648254,0 -10.96228,-2.255676 -14.96048,-6.355042c-3.989746,-4.090637 -6.194046,-9.539032 -6.194046,-15.334503s2.2043,-11.243866 6.198273,-15.334503l0.503479,-0.442474l43.772934,-32.603775l4.97554,7.014404l-43.485214,32.395523c-2.263535,2.424927 -3.503204,5.600281 -3.503204,8.970825c0,3.47467 1.320053,6.745453 3.718964,9.200714c4.721695,4.845459 12.91272,4.93219 17.723282,0.221252l31.596375,-44.572098l6.845612,5.10141l-32.231049,45.383224c-3.993958,4.095032 -9.307983,6.355042 -14.960464,6.355042z"/>
    </g>
   </g>
   <!-- Created with Method Draw - http://github.com/duopixel/Method-Draw/ -->
   <g transform="matrix(0.333333, 0, 0, 0.333333, 0, 0)" id="svg_51">
    <title>background</title>
    <rect x="-1" y="-1" width="202" height="202" id="svg_49" fill="none"/>
   </g>
  </g>
 </g>
</svg>