<svg width="200" height="200" xmlns="http://www.w3.org/2000/svg">
 <!-- Created with Method Draw - http://github.com/duopixel/Method-Draw/ -->

 <g>
  <title>background</title>
  <rect fill="none" id="canvas_background" height="202" width="202" y="-1" x="-1"/>
  <g display="none" overflow="visible" y="0" x="0" height="100%" width="100%" id="canvasGrid">
   <rect fill="url(#gridpattern)" stroke-width="0" y="0" x="0" height="100%" width="100%"/>
  </g>
 </g>
 <g>
  <title>Layer 1</title>
  <g id="svg_9">
   <g transform="matrix(5.94859, 0, 0, 4.16667, -95.5214, 0)" id="svg_4"/>
   <path id="svg_5" fill="#ff0000" d="m183.32785,96.366669c-3.961761,-21.416687 -40.271912,-38.033371 -82.869781,-38.033371c-0.315308,0 -0.624603,0 -0.945831,0c-43.055878,0.25 -79.443413,16.925018 -82.828163,37.966705l-11.82579,-0.937515c4.122391,-25.570847 44.775047,-45.075027 94.558769,-45.362518c0.33905,0 0.684113,0 1.029083,0c48.475098,0 89.960541,19.795837 94.683746,45.300018l-11.802032,1.066681z"/>
   <path id="svg_6" fill="#ff0000" d="m99.565796,150.000031c-48.49292,0 -89.978371,-19.791672 -94.695595,-45.300018l11.801987,-1.070831c3.955826,21.420837 40.271965,38.037521 82.881676,38.037521c0.315308,0 0.624603,0 0.945831,0c43.049957,-0.25 79.437469,-16.925018 82.816254,-37.96669l11.825775,0.933319c-4.116425,25.575027 -44.757202,45.079208 -94.546844,45.366699c-0.339081,0 -0.690033,0 -1.029083,0z"/>
   <path id="svg_7" fill="#ff0000" d="m99.99408,133.333359c-26.019104,0 -47.36264,-14.829178 -47.576782,-33.058365c-0.220123,-18.375 20.950867,-33.454193 47.196075,-33.608353c26.417694,0 47.767151,14.829178 47.975342,33.058365c0.107117,8.904175 -4.746979,17.304169 -13.657959,23.650024c-8.916901,6.345825 -20.825989,9.883331 -33.532196,9.958328l-0.40448,0zm0.011902,-58.333374c-19.975372,0.112503 -35.852142,11.425003 -35.691559,25.208344c0.160645,13.670853 16.168274,24.791687 35.679657,24.791687l0,4.166672l0.303375,-4.166672c9.535583,-0.054169 18.464417,-2.708328 25.156586,-7.46666c6.680237,-4.762512 10.32077,-11.05835 10.243469,-17.737518c-0.160583,-13.675018 -16.174225,-24.795853 -35.691528,-24.795853z"/>
   <path id="svg_8" fill="#ff0000" d="m76.205688,100.141663c-0.113037,-9.191666 10.481415,-16.733337 23.604004,-16.80835l0.095154,8.333344c-6.561279,0.037506 -11.849609,3.808334 -11.796051,8.404175l-11.903107,0.070831z"/>
  </g>
 </g>
</svg>