<svg width="200" height="200" xmlns="http://www.w3.org/2000/svg">
 <!-- Created with Method Draw - http://github.com/duopixel/Method-Draw/ -->

 <g>
  <title>background</title>
  <rect fill="none" id="canvas_background" height="202" width="202" y="-1" x="-1"/>
 </g>
 <g>
  <title>Layer 1</title>
  <g id="svg_9">
   <g transform="matrix(5.99056, 0, 0, 5.9999, -188.047, -186.496)" id="svg_4"/>
   <path id="svg_5" fill="#ff0000" d="m177.577652,71.485443l-50.823868,-50.909182l4.235321,-4.241934c6.787308,-6.803888 15.815063,-10.547821 25.411972,-10.547821s18.624603,3.743933 25.411911,10.547821c14.011963,14.039774 14.011963,36.875404 0,50.90918l-4.235336,4.241936zm-33.355377,-50.375185l32.82225,32.873468c5.4095,-9.197865 4.17543,-21.269661 -3.702164,-29.159531c-7.613983,-7.63187 -20.110275,-9.077848 -29.120087,-3.713938z"/>
   <path id="svg_6" fill="#ff0000" d="m125.681496,26.786173l35.943336,59.903028l-10.261841,6.179893l-35.943306,-59.903027l10.26181,-6.179895z"/>
   <path id="svg_7" fill="#ff0000" d="m4.175041,194.213501l17.845863,-66.994926l11.573757,3.095924l-12.526245,47.03923l47.097759,-12.425797l3.055168,11.603821l-67.046303,17.681747z"/>
   <path id="svg_8" fill="#ff0000" d="m80.96199,167.819885l-14.113747,-36.245377l-36.188955,-14.16581l74.37277,-75.172791l8.512566,8.447857l-61.534985,62.201015l24.094013,9.431847l9.375221,24.083611l49.961266,-49.757202l8.44664,8.507874l-62.924789,62.668976z"/>
  </g>
 </g>
</svg>